<svg xmlns="http://www.w3.org/2000/svg" xmlns:xlink="http://www.w3.org/1999/xlink" width="500" zoomAndPan="magnify" viewBox="0 0 375 374.999991" height="500" preserveAspectRatio="xMidYMid meet" version="1.2"><defs><clipPath id="75bc10af8b"><path d="M 103 171 L 114.890625 171 L 114.890625 184 L 103 184 Z M 103 171 "/></clipPath><clipPath id="4d54684306"><path d="M 103 210 L 114.890625 210 L 114.890625 222.550781 L 103 222.550781 Z M 103 210 "/></clipPath><clipPath id="3f0f68c66e"><path d="M 91.640625 196 L 104 196 L 104 209 L 91.640625 209 Z M 91.640625 196 "/></clipPath></defs><g id="18d62cfa66"><g clip-rule="nonzero" clip-path="url(#75bc10af8b)"><path style=" stroke:none;fill-rule:evenodd;fill:#d9d9d9;fill-opacity:1;" d="M 109.078125 178.371094 C 109.71875 178.371094 110.238281 177.847656 110.238281 177.207031 C 110.238281 176.566406 109.71875 176.042969 109.078125 176.042969 C 108.433594 176.042969 107.914062 176.566406 107.914062 177.207031 C 107.914062 177.847656 108.433594 178.371094 109.078125 178.371094 Z M 114.890625 177.207031 C 114.890625 180.417969 112.285156 183.019531 109.078125 183.019531 C 105.867188 183.019531 103.265625 180.417969 103.265625 177.207031 C 103.265625 173.996094 105.867188 171.394531 109.078125 171.394531 C 112.285156 171.394531 114.890625 173.996094 114.890625 177.207031 Z M 114.890625 177.207031 "/></g><g clip-rule="nonzero" clip-path="url(#4d54684306)"><path style=" stroke:none;fill-rule:evenodd;fill:#d9d9d9;fill-opacity:1;" d="M 109.078125 217.894531 C 109.71875 217.894531 110.238281 217.375 110.238281 216.730469 C 110.238281 216.089844 109.71875 215.570312 109.078125 215.570312 C 108.433594 215.570312 107.914062 216.089844 107.914062 216.730469 C 107.914062 217.375 108.433594 217.894531 109.078125 217.894531 Z M 114.890625 216.730469 C 114.890625 219.941406 112.285156 222.542969 109.078125 222.542969 C 105.867188 222.542969 103.265625 219.941406 103.265625 216.730469 C 103.265625 213.523438 105.867188 210.917969 109.078125 210.917969 C 112.285156 210.917969 114.890625 213.523438 114.890625 216.730469 Z M 114.890625 216.730469 "/></g><g clip-rule="nonzero" clip-path="url(#3f0f68c66e)"><path style=" stroke:none;fill-rule:evenodd;fill:#d9d9d9;fill-opacity:1;" d="M 97.453125 203.945312 C 98.09375 203.945312 98.613281 203.425781 98.613281 202.78125 C 98.613281 202.140625 98.09375 201.621094 97.453125 201.621094 C 96.808594 201.621094 96.289062 202.140625 96.289062 202.78125 C 96.289062 203.425781 96.808594 203.945312 97.453125 203.945312 Z M 103.265625 202.78125 C 103.265625 205.992188 100.660156 208.59375 97.453125 208.59375 C 94.242188 208.59375 91.640625 205.992188 91.640625 202.78125 C 91.640625 199.570312 94.242188 196.96875 97.453125 196.96875 C 100.660156 196.96875 103.265625 199.570312 103.265625 202.78125 Z M 103.265625 202.78125 "/></g><path style=" stroke:none;fill-rule:evenodd;fill:#d9d9d9;fill-opacity:1;" d="M 111.402344 213.246094 L 106.75 213.246094 L 106.75 180.695312 L 111.402344 180.695312 Z M 111.402344 213.246094 "/><path style=" stroke:none;fill-rule:evenodd;fill:#d9d9d9;fill-opacity:1;" d="M 95.125 199.292969 L 95.125 194.644531 C 95.125 190.792969 98.25 187.667969 102.101562 187.667969 L 109.078125 187.667969 L 109.078125 192.320312 L 102.101562 192.320312 C 100.816406 192.320312 99.777344 193.359375 99.777344 194.644531 L 99.777344 199.292969 Z M 95.125 199.292969 "/><g style="fill:#89f1ff;fill-opacity:1;"><g transform="translate(115.78967, 202.286161)"><path style="stroke:none" d="M 9.15625 0.453125 C 7.488281 0.453125 5.863281 0.269531 4.28125 -0.09375 C 2.695312 -0.46875 1.394531 -0.972656 0.375 -1.609375 L 2.5625 -6.5625 C 3.519531 -6.007812 4.59375 -5.5625 5.78125 -5.21875 C 6.96875 -4.882812 8.109375 -4.71875 9.203125 -4.71875 C 10.148438 -4.71875 10.820312 -4.804688 11.21875 -4.984375 C 11.625 -5.171875 11.828125 -5.445312 11.828125 -5.8125 C 11.828125 -6.238281 11.5625 -6.554688 11.03125 -6.765625 C 10.507812 -6.972656 9.644531 -7.203125 8.4375 -7.453125 C 6.882812 -7.773438 5.585938 -8.125 4.546875 -8.5 C 3.515625 -8.875 2.613281 -9.488281 1.84375 -10.34375 C 1.070312 -11.195312 0.6875 -12.351562 0.6875 -13.8125 C 0.6875 -15.082031 1.039062 -16.234375 1.75 -17.265625 C 2.46875 -18.304688 3.53125 -19.125 4.9375 -19.71875 C 6.34375 -20.3125 8.054688 -20.609375 10.078125 -20.609375 C 11.453125 -20.609375 12.804688 -20.457031 14.140625 -20.15625 C 15.472656 -19.863281 16.648438 -19.429688 17.671875 -18.859375 L 15.625 -13.9375 C 13.644531 -14.925781 11.773438 -15.421875 10.015625 -15.421875 C 8.265625 -15.421875 7.390625 -15 7.390625 -14.15625 C 7.390625 -13.757812 7.648438 -13.457031 8.171875 -13.25 C 8.691406 -13.050781 9.546875 -12.835938 10.734375 -12.609375 C 12.265625 -12.316406 13.554688 -11.984375 14.609375 -11.609375 C 15.671875 -11.234375 16.585938 -10.625 17.359375 -9.78125 C 18.140625 -8.9375 18.53125 -7.785156 18.53125 -6.328125 C 18.53125 -5.066406 18.175781 -3.921875 17.46875 -2.890625 C 16.757812 -1.867188 15.695312 -1.054688 14.28125 -0.453125 C 12.875 0.148438 11.164062 0.453125 9.15625 0.453125 Z M 9.15625 0.453125 "/></g></g><g style="fill:#89f1ff;fill-opacity:1;"><g transform="translate(134.703433, 202.286161)"><path style="stroke:none" d="M 1.640625 -20.140625 L 8.4375 -20.140625 L 8.4375 0 L 1.640625 0 Z M 1.640625 -20.140625 "/></g></g><g style="fill:#89f1ff;fill-opacity:1;"><g transform="translate(144.779257, 202.286161)"><path style="stroke:none" d="M 19.625 0 L 19.578125 -9.1875 L 15.203125 -1.8125 L 12.203125 -1.8125 L 7.828125 -8.859375 L 7.828125 0 L 1.640625 0 L 1.640625 -20.140625 L 7.21875 -20.140625 L 13.78125 -9.40625 L 20.171875 -20.140625 L 25.765625 -20.140625 L 25.8125 0 Z M 19.625 0 "/></g></g><g style="fill:#89f1ff;fill-opacity:1;"><g transform="translate(172.243081, 202.286161)"><path style="stroke:none" d="M 15.375 -3.515625 L 7.71875 -3.515625 L 6.359375 0 L -0.546875 0 L 8.265625 -20.140625 L 14.9375 -20.140625 L 23.75 0 L 16.71875 0 Z M 13.5 -8.40625 L 11.546875 -13.46875 L 9.578125 -8.40625 Z M 13.5 -8.40625 "/></g></g><g style="fill:#89f1ff;fill-opacity:1;"><g transform="translate(195.446267, 202.286161)"><path style="stroke:none" d="M 9.15625 0.453125 C 7.488281 0.453125 5.863281 0.269531 4.28125 -0.09375 C 2.695312 -0.46875 1.394531 -0.972656 0.375 -1.609375 L 2.5625 -6.5625 C 3.519531 -6.007812 4.59375 -5.5625 5.78125 -5.21875 C 6.96875 -4.882812 8.109375 -4.71875 9.203125 -4.71875 C 10.148438 -4.71875 10.820312 -4.804688 11.21875 -4.984375 C 11.625 -5.171875 11.828125 -5.445312 11.828125 -5.8125 C 11.828125 -6.238281 11.5625 -6.554688 11.03125 -6.765625 C 10.507812 -6.972656 9.644531 -7.203125 8.4375 -7.453125 C 6.882812 -7.773438 5.585938 -8.125 4.546875 -8.5 C 3.515625 -8.875 2.613281 -9.488281 1.84375 -10.34375 C 1.070312 -11.195312 0.6875 -12.351562 0.6875 -13.8125 C 0.6875 -15.082031 1.039062 -16.234375 1.75 -17.265625 C 2.46875 -18.304688 3.53125 -19.125 4.9375 -19.71875 C 6.34375 -20.3125 8.054688 -20.609375 10.078125 -20.609375 C 11.453125 -20.609375 12.804688 -20.457031 14.140625 -20.15625 C 15.472656 -19.863281 16.648438 -19.429688 17.671875 -18.859375 L 15.625 -13.9375 C 13.644531 -14.925781 11.773438 -15.421875 10.015625 -15.421875 C 8.265625 -15.421875 7.390625 -15 7.390625 -14.15625 C 7.390625 -13.757812 7.648438 -13.457031 8.171875 -13.25 C 8.691406 -13.050781 9.546875 -12.835938 10.734375 -12.609375 C 12.265625 -12.316406 13.554688 -11.984375 14.609375 -11.609375 C 15.671875 -11.234375 16.585938 -10.625 17.359375 -9.78125 C 18.140625 -8.9375 18.53125 -7.785156 18.53125 -6.328125 C 18.53125 -5.066406 18.175781 -3.921875 17.46875 -2.890625 C 16.757812 -1.867188 15.695312 -1.054688 14.28125 -0.453125 C 12.875 0.148438 11.164062 0.453125 9.15625 0.453125 Z M 9.15625 0.453125 "/></g></g><g style="fill:#ffffff;fill-opacity:1;"><g transform="translate(213.244531, 202.286161)"><path style="stroke:none" d="M 2.390625 -20.140625 L 11.546875 -20.140625 C 13.734375 -20.140625 15.664062 -19.722656 17.34375 -18.890625 C 19.019531 -18.054688 20.320312 -16.878906 21.25 -15.359375 C 22.1875 -13.847656 22.65625 -12.085938 22.65625 -10.078125 C 22.65625 -8.054688 22.1875 -6.285156 21.25 -4.765625 C 20.320312 -3.253906 19.019531 -2.082031 17.34375 -1.25 C 15.664062 -0.414062 13.734375 0 11.546875 0 L 2.390625 0 Z M 11.3125 -3.828125 C 13.320312 -3.828125 14.925781 -4.382812 16.125 -5.5 C 17.332031 -6.625 17.9375 -8.148438 17.9375 -10.078125 C 17.9375 -11.992188 17.332031 -13.507812 16.125 -14.625 C 14.925781 -15.75 13.320312 -16.3125 11.3125 -16.3125 L 7.046875 -16.3125 L 7.046875 -3.828125 Z M 11.3125 -3.828125 "/></g></g><g style="fill:#ffffff;fill-opacity:1;"><g transform="translate(237.023482, 202.286161)"><path style="stroke:none" d="M 17.984375 -3.734375 L 17.984375 0 L 2.390625 0 L 2.390625 -20.140625 L 17.609375 -20.140625 L 17.609375 -16.40625 L 7.015625 -16.40625 L 7.015625 -12.03125 L 16.375 -12.03125 L 16.375 -8.40625 L 7.015625 -8.40625 L 7.015625 -3.734375 Z M 17.984375 -3.734375 "/></g></g><g style="fill:#ffffff;fill-opacity:1;"><g transform="translate(256.340278, 202.286161)"><path style="stroke:none" d="M 21.765625 -20.140625 L 13.03125 0 L 8.4375 0 L -0.265625 -20.140625 L 4.78125 -20.140625 L 10.90625 -5.75 L 17.125 -20.140625 Z M 21.765625 -20.140625 "/></g></g><g style="fill:#ffffff;fill-opacity:1;"><g transform="translate(117.057557, 216.036284)"><path style="stroke:none" d="M 0.625 -5.25 L 3 -5.25 C 3.570312 -5.25 4.078125 -5.140625 4.515625 -4.921875 C 4.953125 -4.703125 5.289062 -4.394531 5.53125 -4 C 5.78125 -3.601562 5.90625 -3.144531 5.90625 -2.625 C 5.90625 -2.101562 5.78125 -1.644531 5.53125 -1.25 C 5.289062 -0.851562 4.953125 -0.546875 4.515625 -0.328125 C 4.078125 -0.109375 3.570312 0 3 0 L 0.625 0 Z M 2.953125 -1 C 3.472656 -1 3.890625 -1.144531 4.203125 -1.4375 C 4.515625 -1.726562 4.671875 -2.125 4.671875 -2.625 C 4.671875 -3.125 4.515625 -3.519531 4.203125 -3.8125 C 3.890625 -4.101562 3.472656 -4.25 2.953125 -4.25 L 1.84375 -4.25 L 1.84375 -1 Z M 2.953125 -1 "/></g></g><g style="fill:#ffffff;fill-opacity:1;"><g transform="translate(126.582582, 216.036284)"><path style="stroke:none" d="M 4.6875 -0.96875 L 4.6875 0 L 0.625 0 L 0.625 -5.25 L 4.59375 -5.25 L 4.59375 -4.28125 L 1.828125 -4.28125 L 1.828125 -3.140625 L 4.265625 -3.140625 L 4.265625 -2.1875 L 1.828125 -2.1875 L 1.828125 -0.96875 Z M 4.6875 -0.96875 "/></g></g><g style="fill:#ffffff;fill-opacity:1;"><g transform="translate(134.945107, 216.036284)"><path style="stroke:none" d="M 2.34375 0.09375 C 1.925781 0.09375 1.523438 0.0351562 1.140625 -0.078125 C 0.753906 -0.191406 0.441406 -0.335938 0.203125 -0.515625 L 0.625 -1.4375 C 0.84375 -1.269531 1.109375 -1.132812 1.421875 -1.03125 C 1.734375 -0.9375 2.046875 -0.890625 2.359375 -0.890625 C 2.703125 -0.890625 2.957031 -0.9375 3.125 -1.03125 C 3.289062 -1.132812 3.375 -1.273438 3.375 -1.453125 C 3.375 -1.578125 3.320312 -1.675781 3.21875 -1.75 C 3.125 -1.832031 3 -1.898438 2.84375 -1.953125 C 2.695312 -2.003906 2.492188 -2.0625 2.234375 -2.125 C 1.828125 -2.21875 1.492188 -2.3125 1.234375 -2.40625 C 0.984375 -2.5 0.765625 -2.648438 0.578125 -2.859375 C 0.398438 -3.078125 0.3125 -3.359375 0.3125 -3.703125 C 0.3125 -4.003906 0.394531 -4.28125 0.5625 -4.53125 C 0.726562 -4.78125 0.976562 -4.976562 1.3125 -5.125 C 1.644531 -5.269531 2.050781 -5.34375 2.53125 -5.34375 C 2.863281 -5.34375 3.1875 -5.300781 3.5 -5.21875 C 3.820312 -5.132812 4.101562 -5.019531 4.34375 -4.875 L 3.96875 -3.953125 C 3.488281 -4.222656 3.003906 -4.359375 2.515625 -4.359375 C 2.179688 -4.359375 1.929688 -4.300781 1.765625 -4.1875 C 1.597656 -4.082031 1.515625 -3.941406 1.515625 -3.765625 C 1.515625 -3.585938 1.609375 -3.453125 1.796875 -3.359375 C 1.984375 -3.273438 2.269531 -3.191406 2.65625 -3.109375 C 3.0625 -3.015625 3.390625 -2.914062 3.640625 -2.8125 C 3.898438 -2.71875 4.117188 -2.566406 4.296875 -2.359375 C 4.484375 -2.160156 4.578125 -1.882812 4.578125 -1.53125 C 4.578125 -1.238281 4.492188 -0.96875 4.328125 -0.71875 C 4.160156 -0.46875 3.90625 -0.269531 3.5625 -0.125 C 3.226562 0.0195312 2.820312 0.09375 2.34375 0.09375 Z M 2.34375 0.09375 "/></g></g><g style="fill:#ffffff;fill-opacity:1;"><g transform="translate(143.060125, 216.036284)"><path style="stroke:none" d="M 4.6875 -0.96875 L 4.6875 0 L 0.625 0 L 0.625 -5.25 L 4.59375 -5.25 L 4.59375 -4.28125 L 1.828125 -4.28125 L 1.828125 -3.140625 L 4.265625 -3.140625 L 4.265625 -2.1875 L 1.828125 -2.1875 L 1.828125 -0.96875 Z M 4.6875 -0.96875 "/></g></g><g style="fill:#ffffff;fill-opacity:1;"><g transform="translate(151.42265, 216.036284)"><path style="stroke:none" d="M 5.4375 -5.25 L 5.4375 0 L 4.4375 0 L 1.828125 -3.1875 L 1.828125 0 L 0.625 0 L 0.625 -5.25 L 1.625 -5.25 L 4.234375 -2.0625 L 4.234375 -5.25 Z M 5.4375 -5.25 "/></g></g><g style="fill:#ffffff;fill-opacity:1;"><g transform="translate(160.812682, 216.036284)"><path style="stroke:none" d="M 5.671875 -5.25 L 3.390625 0 L 2.203125 0 L -0.0625 -5.25 L 1.25 -5.25 L 2.84375 -1.5 L 4.46875 -5.25 Z M 5.671875 -5.25 "/></g></g><g style="fill:#ffffff;fill-opacity:1;"><g transform="translate(169.737703, 216.036284)"><path style="stroke:none" d="M 3.171875 0.09375 C 2.617188 0.09375 2.125 -0.0195312 1.6875 -0.25 C 1.25 -0.488281 0.90625 -0.816406 0.65625 -1.234375 C 0.414062 -1.648438 0.296875 -2.113281 0.296875 -2.625 C 0.296875 -3.132812 0.414062 -3.597656 0.65625 -4.015625 C 0.90625 -4.429688 1.25 -4.753906 1.6875 -4.984375 C 2.125 -5.222656 2.617188 -5.34375 3.171875 -5.34375 C 3.710938 -5.34375 4.195312 -5.222656 4.625 -4.984375 C 5.0625 -4.753906 5.40625 -4.429688 5.65625 -4.015625 C 5.90625 -3.597656 6.03125 -3.132812 6.03125 -2.625 C 6.03125 -2.113281 5.90625 -1.648438 5.65625 -1.234375 C 5.40625 -0.816406 5.0625 -0.488281 4.625 -0.25 C 4.195312 -0.0195312 3.710938 0.09375 3.171875 0.09375 Z M 3.171875 -0.9375 C 3.472656 -0.9375 3.75 -1.007812 4 -1.15625 C 4.25 -1.300781 4.445312 -1.5 4.59375 -1.75 C 4.738281 -2.007812 4.8125 -2.300781 4.8125 -2.625 C 4.8125 -2.945312 4.738281 -3.234375 4.59375 -3.484375 C 4.445312 -3.742188 4.25 -3.945312 4 -4.09375 C 3.75 -4.238281 3.472656 -4.3125 3.171875 -4.3125 C 2.859375 -4.3125 2.578125 -4.238281 2.328125 -4.09375 C 2.078125 -3.945312 1.878906 -3.742188 1.734375 -3.484375 C 1.585938 -3.234375 1.515625 -2.945312 1.515625 -2.625 C 1.515625 -2.300781 1.585938 -2.007812 1.734375 -1.75 C 1.878906 -1.5 2.078125 -1.300781 2.328125 -1.15625 C 2.578125 -1.007812 2.859375 -0.9375 3.171875 -0.9375 Z M 3.171875 -0.9375 "/></g></g><g style="fill:#ffffff;fill-opacity:1;"><g transform="translate(179.39773, 216.036284)"><path style="stroke:none" d="M 0.625 -5.25 L 1.84375 -5.25 L 1.84375 -0.984375 L 4.46875 -0.984375 L 4.46875 0 L 0.625 0 Z M 0.625 -5.25 "/></g></g><g style="fill:#ffffff;fill-opacity:1;"><g transform="translate(187.257745, 216.036284)"><path style="stroke:none" d="M 5.671875 -5.25 L 3.390625 0 L 2.203125 0 L -0.0625 -5.25 L 1.25 -5.25 L 2.84375 -1.5 L 4.46875 -5.25 Z M 5.671875 -5.25 "/></g></g><g style="fill:#ffffff;fill-opacity:1;"><g transform="translate(196.182766, 216.036284)"><path style="stroke:none" d="M 0.625 -5.25 L 1.84375 -5.25 L 1.84375 0 L 0.625 0 Z M 0.625 -5.25 "/></g></g><g style="fill:#ffffff;fill-opacity:1;"><g transform="translate(201.972776, 216.036284)"><path style="stroke:none" d="M 5.40625 0 L 5.390625 -3.15625 L 3.84375 -0.5625 L 3.296875 -0.5625 L 1.765625 -3.078125 L 1.765625 0 L 0.625 0 L 0.625 -5.25 L 1.625 -5.25 L 3.59375 -1.984375 L 5.53125 -5.25 L 6.53125 -5.25 L 6.546875 0 Z M 5.40625 0 "/></g></g><g style="fill:#ffffff;fill-opacity:1;"><g transform="translate(212.465312, 216.036284)"><path style="stroke:none" d="M 4.6875 -0.96875 L 4.6875 0 L 0.625 0 L 0.625 -5.25 L 4.59375 -5.25 L 4.59375 -4.28125 L 1.828125 -4.28125 L 1.828125 -3.140625 L 4.265625 -3.140625 L 4.265625 -2.1875 L 1.828125 -2.1875 L 1.828125 -0.96875 Z M 4.6875 -0.96875 "/></g></g><g style="fill:#ffffff;fill-opacity:1;"><g transform="translate(220.827837, 216.036284)"><path style="stroke:none" d="M 5.4375 -5.25 L 5.4375 0 L 4.4375 0 L 1.828125 -3.1875 L 1.828125 0 L 0.625 0 L 0.625 -5.25 L 1.625 -5.25 L 4.234375 -2.0625 L 4.234375 -5.25 Z M 5.4375 -5.25 "/></g></g><g style="fill:#ffffff;fill-opacity:1;"><g transform="translate(230.217869, 216.036284)"><path style="stroke:none" d="M 1.703125 -4.265625 L 0.03125 -4.265625 L 0.03125 -5.25 L 4.609375 -5.25 L 4.609375 -4.265625 L 2.921875 -4.265625 L 2.921875 0 L 1.703125 0 Z M 1.703125 -4.265625 "/></g></g><g style="fill:#ffffff;fill-opacity:1;"><g transform="translate(238.182884, 216.036284)"><path style="stroke:none" d="M 3.171875 0.09375 C 2.617188 0.09375 2.125 -0.0195312 1.6875 -0.25 C 1.25 -0.488281 0.90625 -0.816406 0.65625 -1.234375 C 0.414062 -1.648438 0.296875 -2.113281 0.296875 -2.625 C 0.296875 -3.132812 0.414062 -3.597656 0.65625 -4.015625 C 0.90625 -4.429688 1.25 -4.753906 1.6875 -4.984375 C 2.125 -5.222656 2.617188 -5.34375 3.171875 -5.34375 C 3.710938 -5.34375 4.195312 -5.222656 4.625 -4.984375 C 5.0625 -4.753906 5.40625 -4.429688 5.65625 -4.015625 C 5.90625 -3.597656 6.03125 -3.132812 6.03125 -2.625 C 6.03125 -2.113281 5.90625 -1.648438 5.65625 -1.234375 C 5.40625 -0.816406 5.0625 -0.488281 4.625 -0.25 C 4.195312 -0.0195312 3.710938 0.09375 3.171875 0.09375 Z M 3.171875 -0.9375 C 3.472656 -0.9375 3.75 -1.007812 4 -1.15625 C 4.25 -1.300781 4.445312 -1.5 4.59375 -1.75 C 4.738281 -2.007812 4.8125 -2.300781 4.8125 -2.625 C 4.8125 -2.945312 4.738281 -3.234375 4.59375 -3.484375 C 4.445312 -3.742188 4.25 -3.945312 4 -4.09375 C 3.75 -4.238281 3.472656 -4.3125 3.171875 -4.3125 C 2.859375 -4.3125 2.578125 -4.238281 2.328125 -4.09375 C 2.078125 -3.945312 1.878906 -3.742188 1.734375 -3.484375 C 1.585938 -3.234375 1.515625 -2.945312 1.515625 -2.625 C 1.515625 -2.300781 1.585938 -2.007812 1.734375 -1.75 C 1.878906 -1.5 2.078125 -1.300781 2.328125 -1.15625 C 2.578125 -1.007812 2.859375 -0.9375 3.171875 -0.9375 Z M 3.171875 -0.9375 "/></g></g><g style="fill:#ffffff;fill-opacity:1;"><g transform="translate(247.842911, 216.036284)"><path style="stroke:none" d=""/></g></g><g style="fill:#ffffff;fill-opacity:1;"><g transform="translate(253.295415, 216.036284)"><path style="stroke:none" d="M 8.5625 -5.25 L 6.84375 0 L 5.53125 0 L 4.375 -3.5625 L 3.1875 0 L 1.890625 0 L 0.171875 -5.25 L 1.421875 -5.25 L 2.609375 -1.5625 L 3.84375 -5.25 L 4.96875 -5.25 L 6.171875 -1.53125 L 7.390625 -5.25 Z M 8.5625 -5.25 "/></g></g><g style="fill:#ffffff;fill-opacity:1;"><g transform="translate(265.347961, 216.036284)"><path style="stroke:none" d="M 4.6875 -0.96875 L 4.6875 0 L 0.625 0 L 0.625 -5.25 L 4.59375 -5.25 L 4.59375 -4.28125 L 1.828125 -4.28125 L 1.828125 -3.140625 L 4.265625 -3.140625 L 4.265625 -2.1875 L 1.828125 -2.1875 L 1.828125 -0.96875 Z M 4.6875 -0.96875 "/></g></g><g style="fill:#ffffff;fill-opacity:1;"><g transform="translate(273.710486, 216.036284)"><path style="stroke:none" d="M 4.484375 -2.734375 C 4.773438 -2.640625 5.003906 -2.476562 5.171875 -2.25 C 5.347656 -2.03125 5.4375 -1.757812 5.4375 -1.4375 C 5.4375 -0.976562 5.253906 -0.625 4.890625 -0.375 C 4.535156 -0.125 4.019531 0 3.34375 0 L 0.625 0 L 0.625 -5.25 L 3.1875 -5.25 C 3.820312 -5.25 4.3125 -5.125 4.65625 -4.875 C 5 -4.632812 5.171875 -4.304688 5.171875 -3.890625 C 5.171875 -3.628906 5.109375 -3.398438 4.984375 -3.203125 C 4.867188 -3.003906 4.703125 -2.847656 4.484375 -2.734375 Z M 1.828125 -4.328125 L 1.828125 -3.09375 L 3.03125 -3.09375 C 3.332031 -3.09375 3.5625 -3.144531 3.71875 -3.25 C 3.875 -3.351562 3.953125 -3.507812 3.953125 -3.71875 C 3.953125 -3.925781 3.875 -4.078125 3.71875 -4.171875 C 3.5625 -4.273438 3.332031 -4.328125 3.03125 -4.328125 Z M 3.25 -0.921875 C 3.570312 -0.921875 3.8125 -0.972656 3.96875 -1.078125 C 4.132812 -1.179688 4.21875 -1.34375 4.21875 -1.5625 C 4.21875 -2 3.894531 -2.21875 3.25 -2.21875 L 1.828125 -2.21875 L 1.828125 -0.921875 Z M 3.25 -0.921875 "/></g></g></g></svg>